<svg width="88" height="90" viewBox="0 0 88 90" fill="none" xmlns="http://www.w3.org/2000/svg">
<g filter="url(#filter0_dd_1863_4625)">
<circle cx="43" cy="41" r="39" fill="white"/>
<circle cx="43" cy="41" r="38.5" stroke="#EAEEF0"/>
</g>
<path opacity="0.4" d="M26.375 31.125C26.375 27.3956 29.3956 24.375 33.125 24.375H53.375C57.0875 24.375 60.125 27.3956 60.125 31.125V46.3125C60.125 50.025 57.0875 53.0625 53.375 53.0625H33.125C29.3956 53.0625 26.375 50.025 26.375 46.3125V31.125Z" fill="#F09324"/>
<path opacity="0.4" fill-rule="evenodd" clip-rule="evenodd" d="M43.25 50.1094C43.9419 50.1094 44.5156 50.6663 44.5156 51.375V56.8594H48.3125C49.0044 56.8594 49.5781 57.4163 49.5781 58.125C49.5781 58.8169 49.0044 59.3906 48.3125 59.3906H38.1875C37.4788 59.3906 36.9219 58.8169 36.9219 58.125C36.9219 57.4163 37.4788 56.8594 38.1875 56.8594H41.9844V51.375C41.9844 50.6663 42.5413 50.1094 43.25 50.1094Z" fill="#F09324"/>
<path fill-rule="evenodd" clip-rule="evenodd" d="M33.5469 32.8125C33.5469 32.1038 34.1038 31.5469 34.8125 31.5469H43.25C43.9419 31.5469 44.5156 32.1038 44.5156 32.8125C44.5156 33.5044 43.9419 34.0781 43.25 34.0781H34.8125C34.1038 34.0781 33.5469 33.5044 33.5469 32.8125Z" fill="#F09324"/>
<path fill-rule="evenodd" clip-rule="evenodd" d="M33.5469 39.5625C33.5469 38.8538 34.1038 38.2969 34.8125 38.2969H51.6875C52.3794 38.2969 52.9531 38.8538 52.9531 39.5625C52.9531 40.2544 52.3794 40.8281 51.6875 40.8281H34.8125C34.1038 40.8281 33.5469 40.2544 33.5469 39.5625Z" fill="#F09324"/>
<path d="M60.125 46.3125H26.375C26.375 50.025 29.3956 53.0625 33.125 53.0625H53.375C57.0875 53.0625 60.125 50.025 60.125 46.3125Z" fill="#F09324"/>
<defs>
<filter id="filter0_dd_1863_4625" x="0" y="0" width="88" height="90" filterUnits="userSpaceOnUse" color-interpolation-filters="sRGB">
<feFlood flood-opacity="0" result="BackgroundImageFix"/>
<feColorMatrix in="SourceAlpha" type="matrix" values="0 0 0 0 0 0 0 0 0 0 0 0 0 0 0 0 0 0 127 0" result="hardAlpha"/>
<feOffset dy="1"/>
<feGaussianBlur stdDeviation="1.5"/>
<feColorMatrix type="matrix" values="0 0 0 0 0 0 0 0 0 0 0 0 0 0 0 0 0 0 0.02 0"/>
<feBlend mode="normal" in2="BackgroundImageFix" result="effect1_dropShadow_1863_4625"/>
<feColorMatrix in="SourceAlpha" type="matrix" values="0 0 0 0 0 0 0 0 0 0 0 0 0 0 0 0 0 0 127 0" result="hardAlpha"/>
<feOffset dx="1" dy="5"/>
<feGaussianBlur stdDeviation="2.5"/>
<feColorMatrix type="matrix" values="0 0 0 0 0 0 0 0 0 0 0 0 0 0 0 0 0 0 0.02 0"/>
<feBlend mode="normal" in2="effect1_dropShadow_1863_4625" result="effect2_dropShadow_1863_4625"/>
<feBlend mode="normal" in="SourceGraphic" in2="effect2_dropShadow_1863_4625" result="shape"/>
</filter>
</defs>
</svg>
